<svg width="40" height="40" viewBox="0 0 40 40" fill="none" xmlns="http://www.w3.org/2000/svg">
<path d="M33.2667 14.9333C32.15 13.7 30.4667 12.9833 28.1334 12.7333V11.4667C28.1334 9.18333 27.1667 6.98333 25.4667 5.45C23.75 3.88333 21.5167 3.15 19.2 3.36667C15.2167 3.75 11.8667 7.6 11.8667 11.7667V12.7333C9.53336 12.9833 7.85002 13.7 6.73336 14.9333C5.11669 16.7333 5.16669 19.1333 5.35002 20.8L6.51669 30.0833C6.86669 33.3333 8.18336 36.6667 15.35 36.6667H24.65C31.8167 36.6667 33.1334 33.3333 33.4834 30.1L34.65 20.7833C34.8334 19.1333 34.8834 16.7333 33.2667 14.9333ZM19.4334 5.68333C21.1 5.53333 22.6834 6.05 23.9167 7.16667C25.1334 8.26667 25.8167 9.83333 25.8167 11.4667V12.6333H14.1834V11.7667C14.1834 8.8 16.6334 5.95 19.4334 5.68333ZM20 30.9667C16.5167 30.9667 13.6834 28.1333 13.6834 24.65C13.6834 21.1667 16.5167 18.3333 20 18.3333C23.4834 18.3333 26.3167 21.1667 26.3167 24.65C26.3167 28.1333 23.4834 30.9667 20 30.9667Z" fill="#F26B2C"/>
<path d="M19.05 27.7333C18.7333 27.7333 18.4167 27.6167 18.1667 27.3667L16.5167 25.7167C16.0333 25.2333 16.0333 24.4333 16.5167 23.95C17 23.4667 17.8 23.4667 18.2833 23.95L19.0833 24.75L21.75 22.2833C22.25 21.8167 23.05 21.85 23.5167 22.35C23.9833 22.85 23.95 23.65 23.45 24.1167L19.9 27.4C19.65 27.6167 19.35 27.7333 19.05 27.7333Z" fill="#F26B2C"/>
</svg>
