<svg width="16" height="16" viewBox="0 0 16 16" fill="none" xmlns="http://www.w3.org/2000/svg">
<circle cx="8" cy="8" r="8" fill="#FF7171"/>
<path d="M5.1582 9.75L6.26562 9.65625C6.34766 10.1953 6.53711 10.6016 6.83398 10.875C7.13477 11.1445 7.49609 11.2793 7.91797 11.2793C8.42578 11.2793 8.85547 11.0879 9.20703 10.7051C9.55859 10.3223 9.73438 9.81445 9.73438 9.18164C9.73438 8.58008 9.56445 8.10547 9.22461 7.75781C8.88867 7.41016 8.44727 7.23633 7.90039 7.23633C7.56055 7.23633 7.25391 7.31445 6.98047 7.4707C6.70703 7.62305 6.49219 7.82227 6.33594 8.06836L5.3457 7.93945L6.17773 3.52734H10.4492V4.53516H7.02148L6.55859 6.84375C7.07422 6.48438 7.61523 6.30469 8.18164 6.30469C8.93164 6.30469 9.56445 6.56445 10.0801 7.08398C10.5957 7.60352 10.8535 8.27148 10.8535 9.08789C10.8535 9.86523 10.627 10.5371 10.1738 11.1035C9.62305 11.7988 8.87109 12.1465 7.91797 12.1465C7.13672 12.1465 6.49805 11.9277 6.00195 11.4902C5.50977 11.0527 5.22852 10.4727 5.1582 9.75Z" fill="#FCFCFC"/>
</svg>
