<svg width="45" height="45" viewBox="0 0 45 45" fill="none" xmlns="http://www.w3.org/2000/svg">
<circle cx="22.5" cy="22.5" r="22.5" fill="#0CDD6C"/>
<g clip-path="url(#clip0_14_90)">
<mask id="mask0_14_90" style="mask-type:luminance" maskUnits="userSpaceOnUse" x="8" y="11" width="25" height="25">
<path d="M33 11H8V36H33V11Z" fill="white"/>
</mask>
<g mask="url(#mask0_14_90)">
<path d="M15.9752 30.4453C14.5337 30.4453 13.3652 31.6139 13.3652 33.0553C13.3652 34.4967 14.5338 35.6652 15.9752 35.6652C17.4167 35.6652 18.5851 34.4967 18.5851 33.0553C18.5852 31.6139 17.4167 30.4453 15.9752 30.4453ZM15.9752 34.5053C15.1744 34.5053 14.5252 33.8561 14.5252 33.0553C14.5252 32.2545 15.1744 31.6054 15.9752 31.6054C16.776 31.6054 17.4252 32.2545 17.4252 33.0553C17.4252 33.8561 16.776 34.5053 15.9752 34.5053Z" fill="#FCFCFC"/>
<path d="M15.9752 34.5053C15.1744 34.5053 14.5252 33.8561 14.5252 33.0553C14.5252 32.2545 15.1744 31.6054 15.9752 31.6054C16.776 31.6054 17.4252 32.2545 17.4252 33.0553C17.4252 33.8561 16.776 34.5053 15.9752 34.5053Z" fill="#FCFCFC"/>
<path d="M26.9947 30.4453C25.5533 30.4453 24.3848 31.6139 24.3848 33.0553C24.3848 34.4967 25.5533 35.6652 26.9947 35.6652C28.4361 35.6652 29.6047 34.4967 29.6047 33.0553C29.6047 31.6139 28.4362 30.4453 26.9947 30.4453ZM26.9947 34.5053C26.1939 34.5053 25.5448 33.8561 25.5448 33.0553C25.5448 32.2545 26.1939 31.6054 26.9947 31.6054C27.7955 31.6054 28.4447 32.2545 28.4447 33.0553C28.4447 33.8561 27.7955 34.5053 26.9947 34.5053Z" fill="#FCFCFC"/>
<path d="M26.9947 34.5053C26.1939 34.5053 25.5448 33.8561 25.5448 33.0553C25.5448 32.2545 26.1939 31.6054 26.9947 31.6054C27.7955 31.6054 28.4447 32.2545 28.4447 33.0553C28.4447 33.8561 27.7955 34.5053 26.9947 34.5053Z" fill="#FCFCFC"/>
<path d="M32.8818 15.2205C32.761 15.0885 32.5957 15.0059 32.4178 14.9885L13.539 14.7275L13.017 13.1325C12.6492 12.0662 11.6508 11.3464 10.523 11.3345H8.58C8.25966 11.3345 8 11.5941 8 11.9145C8 12.2348 8.25966 12.4945 8.58 12.4945H10.523C11.1536 12.5084 11.7089 12.9133 11.915 13.5095L15.598 24.6164L15.308 25.2834C14.9845 26.1174 15.0817 27.0561 15.569 27.8063C16.0516 28.5431 16.8636 28.9978 17.744 29.0243H29.0249C29.3452 29.0243 29.6049 28.7647 29.6049 28.4443C29.6049 28.124 29.3452 27.8643 29.0249 27.8643H17.7439C17.2467 27.8519 16.7891 27.5904 16.5259 27.1683C16.2657 26.7515 16.2123 26.2379 16.3809 25.7763L16.613 25.2543L28.8219 23.9783C30.1629 23.8306 31.2661 22.8552 31.5769 21.5423L32.9689 15.7134C33.0316 15.5455 32.9983 15.3568 32.8818 15.2205ZM30.4458 21.2814C30.2576 22.1265 29.54 22.7499 28.6769 22.8184L16.613 24.0654L13.916 15.8875L31.6928 16.1485L30.4458 21.2814Z" fill="#FCFCFC"/>
<path d="M30.4458 21.2814C30.2576 22.1265 29.54 22.7499 28.6769 22.8184L16.613 24.0654L13.916 15.8875L31.6928 16.1485L30.4458 21.2814Z" fill="#FCFCFC"/>
</g>
</g>
<defs>
<clipPath id="clip0_14_90">
<rect width="25" height="25" fill="white" transform="translate(8 11)"/>
</clipPath>
</defs>
</svg>
