<svg width="40" height="40" viewBox="0 0 40 40" fill="none" xmlns="http://www.w3.org/2000/svg">
<path d="M8.33329 25C6.76663 25 5.31663 25.55 4.16663 26.4667C2.63329 27.6833 1.66663 29.5667 1.66663 31.6667C1.66663 32.9167 2.01663 34.1 2.63329 35.1C3.78329 37.0333 5.89996 38.3333 8.33329 38.3333C10.0166 38.3333 11.55 37.7167 12.7166 36.6667C13.2333 36.2333 13.6833 35.7 14.0333 35.1C14.65 34.1 15 32.9167 15 31.6667C15 27.9833 12.0166 25 8.33329 25ZM11.7833 30.95L8.23329 34.2333C7.99996 34.45 7.68329 34.5667 7.38329 34.5667C7.06663 34.5667 6.74996 34.45 6.49996 34.2L4.84996 32.55C4.36663 32.0667 4.36663 31.2667 4.84996 30.7833C5.33329 30.3 6.13329 30.3 6.61663 30.7833L7.41663 31.5833L10.0833 29.1167C10.5833 28.65 11.3833 28.6833 11.85 29.1833C12.3166 29.6833 12.2833 30.4833 11.7833 30.95Z" fill="#92C156"/>
<path d="M24.75 6.58333V12.9167H22.25V6.58333C22.25 6.13333 21.85 5.91666 21.5833 5.91666C21.5 5.91666 21.4166 5.93333 21.3333 5.96666L8.11663 10.95C7.23329 11.2833 6.66663 12.1167 6.66663 13.0667V14.1833C5.14996 15.3167 4.16663 17.1333 4.16663 19.1833V13.0667C4.16663 11.0833 5.38329 9.31666 7.23329 8.61666L20.4666 3.61666C20.8333 3.48333 21.2166 3.41666 21.5833 3.41666C23.25 3.41666 24.75 4.76666 24.75 6.58333Z" fill="#92C156"/>
<path d="M35.8333 24.1667V25.8333C35.8333 26.2833 35.4833 26.65 35.0166 26.6667H32.5833C31.7 26.6667 30.9 26.0167 30.8333 25.15C30.7833 24.6333 30.9833 24.15 31.3166 23.8167C31.6166 23.5 32.0333 23.3333 32.4833 23.3333H35C35.4833 23.35 35.8333 23.7167 35.8333 24.1667Z" fill="#92C156"/>
<path d="M32.4666 21.5833H34.1666C35.0833 21.5833 35.8333 20.8333 35.8333 19.9167V19.1833C35.8333 15.7333 33.0166 12.9167 29.5666 12.9167H10.4333C9.01663 12.9167 7.71663 13.3833 6.66663 14.1833C5.14996 15.3167 4.16663 17.1333 4.16663 19.1833V22.15C4.16663 22.7833 4.83329 23.1833 5.43329 22.9833C6.36663 22.6667 7.34996 22.5 8.33329 22.5C13.3833 22.5 17.5 26.6167 17.5 31.6667C17.5 32.8667 17.1833 34.1833 16.6833 35.35C16.4166 35.95 16.8333 36.6667 17.4833 36.6667H29.5666C33.0166 36.6667 35.8333 33.85 35.8333 30.4V30.0833C35.8333 29.1667 35.0833 28.4167 34.1666 28.4167H32.7166C31.1166 28.4167 29.5833 27.4333 29.1666 25.8833C28.8333 24.6167 29.2333 23.3833 30.0666 22.5833C30.6833 21.95 31.5333 21.5833 32.4666 21.5833ZM23.3333 21.25H15C14.3166 21.25 13.75 20.6833 13.75 20C13.75 19.3167 14.3166 18.75 15 18.75H23.3333C24.0166 18.75 24.5833 19.3167 24.5833 20C24.5833 20.6833 24.0166 21.25 23.3333 21.25Z" fill="#92C156"/>
</svg>
