<svg width="141" height="26" viewBox="0 0 141 26" fill="none" xmlns="http://www.w3.org/2000/svg">
<path d="M20.0181 2.53009H1.27407C0.675851 2.53009 0.127488 3.02878 0.127488 3.67708V5.77157C0.127488 6.41987 0.675851 6.96843 1.27407 6.96843H20.0181C20.6662 6.96843 21.1647 6.41987 21.2146 5.77157V3.72695C21.2146 3.02878 20.6662 2.53009 20.0181 2.53009ZM20.0181 14.2992H1.27407C0.974959 14.2992 0.675852 14.4488 0.426595 14.6482C0.22719 14.8477 0.0776367 15.1469 0.0776367 15.496V17.5905C0.0776367 18.2388 0.626 18.7874 1.22422 18.7874H19.9683C20.6163 18.7874 21.1149 18.2887 21.1647 17.5905V15.496C21.2146 14.7979 20.6662 14.2992 20.0181 14.2992ZM11.8425 20.1338H1.27407C0.974959 20.1338 0.675851 20.2336 0.476447 20.4829C0.277042 20.6824 0.127488 20.9816 0.127488 21.3307V23.4252C0.127488 24.0735 0.675851 24.622 1.27407 24.622H11.7927C12.4407 24.622 12.9393 24.0735 12.9393 23.4252V21.2808C12.9891 20.6824 12.4906 20.1338 11.8425 20.1338ZM21.2146 8.41463H1.27407C0.974959 8.41463 0.675851 8.51437 0.476447 8.76371C0.277042 8.96319 0.127488 9.2624 0.127488 9.61148V11.706C0.127488 12.3543 0.675851 12.9028 1.27407 12.9028H21.1647C21.8128 12.9028 22.3113 12.3543 22.3113 11.706V9.61148C22.3611 8.91332 21.8626 8.41463 21.2146 8.41463Z" fill="#3E4B62"/>
<path d="M42.9996 7.26761C42.4014 6.66919 41.7534 6.22037 40.9557 5.87128C40.208 5.5222 39.3605 5.37259 38.513 5.37259C37.7154 5.37259 36.9178 5.5222 36.17 5.87128C35.6715 6.12063 35.2228 6.41984 34.8739 6.81879V6.46971C34.8739 6.27023 34.7742 6.12063 34.6745 5.97102C34.5249 5.82141 34.3754 5.72168 34.176 5.72168H31.5339C31.3345 5.72168 31.135 5.82141 31.0353 5.97102C30.8858 6.12063 30.8359 6.27023 30.8359 6.46971V23.9238C30.8359 24.1233 30.9356 24.2729 31.0353 24.4225C31.1849 24.5721 31.3345 24.622 31.5339 24.622H34.176C34.3754 24.622 34.5249 24.5721 34.6745 24.4225C34.824 24.2729 34.8739 24.1233 34.8739 23.9238V17.9396C35.2727 18.3385 35.7214 18.6876 36.2697 18.8372C36.9676 19.0866 37.7154 19.2362 38.4133 19.2362C39.2608 19.2362 40.1083 19.0866 40.856 18.7375C41.6537 18.4383 42.3516 17.9396 42.8999 17.3411C43.4982 16.6928 43.9967 15.9448 44.2958 15.1469C44.6447 14.2493 44.8441 13.2519 44.7943 12.3044C44.7943 11.307 44.6447 10.3595 44.2958 9.41198C44.0964 8.66395 43.5979 7.91591 42.9996 7.26761ZM40.6566 13.601C40.5071 13.9501 40.3077 14.2991 40.0584 14.5984C39.5101 15.1968 38.7623 15.496 37.9647 15.496C37.5659 15.496 37.167 15.3963 36.8181 15.2466C36.4691 15.097 36.1202 14.8477 35.8709 14.5984C35.6217 14.2991 35.3724 13.9501 35.2228 13.601C34.9237 12.8031 34.9237 11.9553 35.2228 11.1574C35.3724 10.8083 35.5718 10.4592 35.8709 10.16C36.17 9.8608 36.4691 9.66132 36.8181 9.46185C37.167 9.31224 37.5659 9.2125 37.9647 9.2125C38.3635 9.2125 38.7623 9.31224 39.1611 9.46185C39.5101 9.61146 39.8092 9.8608 40.1083 10.1101C40.3575 10.4094 40.5569 10.7086 40.7065 11.1075C40.9557 11.9054 40.9557 12.8031 40.6566 13.601ZM59.2013 5.77155H56.5592C56.3598 5.77155 56.2102 5.87128 56.0607 5.97102C55.9111 6.12063 55.8613 6.3201 55.8613 6.51958V6.81879C55.5123 6.41984 55.1135 6.12063 54.6648 5.92115C53.9669 5.57207 53.1693 5.42246 52.3717 5.42246C50.6767 5.42246 49.0316 6.12063 47.8352 7.31748C47.237 7.96578 46.7385 8.71381 46.3895 9.51172C45.9907 10.4094 45.8412 11.4067 45.8412 12.4041C45.8412 13.4015 45.9907 14.3989 46.3895 15.2965C46.7385 16.0944 47.237 16.8425 47.8352 17.4908C49.0316 18.6876 50.6269 19.3858 52.3218 19.3858C53.1194 19.3858 53.9171 19.2362 54.615 18.8871C55.0636 18.6377 55.5123 18.3385 55.8114 17.9894V18.3385C55.8114 18.538 55.9111 18.6876 56.0108 18.8372C56.1604 18.937 56.3099 19.0367 56.5093 19.0367H59.1514C59.3508 19.0367 59.5004 18.937 59.65 18.8372C59.7995 18.6876 59.8494 18.538 59.8494 18.3385V6.51958C59.8494 6.3201 59.7995 6.1705 59.65 6.02089C59.5502 5.82141 59.4007 5.77155 59.2013 5.77155ZM55.612 13.5511C55.4624 13.9002 55.263 14.2493 55.0138 14.5485C54.7645 14.7978 54.4156 15.0472 54.0666 15.2466C53.3188 15.5957 52.4714 15.5957 51.7236 15.2466C51.3746 15.097 51.0257 14.8477 50.7764 14.5485C50.5272 14.2493 50.2779 13.9002 50.1782 13.5511C49.8791 12.7532 49.8791 11.9054 50.1782 11.1075C50.3278 10.7584 50.5272 10.4094 50.7764 10.1101C51.0257 9.81093 51.3746 9.61146 51.7236 9.41198C52.4714 9.0629 53.3188 9.0629 54.0666 9.41198C54.4156 9.56159 54.7147 9.81093 55.0138 10.0603C55.263 10.3595 55.4624 10.6587 55.612 11.0577C55.961 11.9054 55.961 12.8031 55.612 13.5511ZM85.4729 12.0052C85.0741 11.6561 84.6753 11.4067 84.1768 11.2073C83.6782 11.0078 83.1797 10.8582 82.6314 10.7584L80.6373 10.3595C80.1388 10.2598 79.74 10.1101 79.5406 9.96054C79.391 9.8608 79.2913 9.66132 79.2913 9.46185C79.2913 9.26237 79.391 9.0629 79.6901 8.91329C80.0391 8.71381 80.4379 8.61408 80.7869 8.66395C81.2854 8.66395 81.8337 8.76368 82.2824 8.96316C82.7311 9.16263 83.1797 9.41198 83.5785 9.66132C84.1768 10.0104 84.6753 9.96054 85.0242 9.56159L85.9714 8.46447C86.1708 8.26499 86.2705 8.01565 86.2705 7.7663C86.2705 7.51696 86.121 7.21774 85.9216 7.06814C85.5227 6.71906 84.8747 6.3201 83.9773 5.97102C83.1299 5.62194 82.0331 5.42246 80.737 5.42246C79.9394 5.42246 79.1916 5.5222 78.4439 5.77155C77.7958 5.97102 77.1976 6.27024 76.6991 6.66919C76.2006 7.01827 75.8516 7.51696 75.5525 8.06552C75.3032 8.61408 75.1537 9.16263 75.1537 9.76106C75.1537 10.8582 75.5026 11.7558 76.1507 12.4041C76.7988 13.0524 77.6462 13.5012 78.743 13.7007L80.8367 14.1495C81.2854 14.2493 81.734 14.349 82.1827 14.5485C82.432 14.6482 82.5815 14.8477 82.5815 15.1469C82.5815 15.3963 82.4818 15.5957 82.1827 15.7952C81.9335 15.9947 81.4848 16.0944 80.9364 16.0944C80.3881 16.0944 79.7898 15.9947 79.2913 15.7453C78.7928 15.496 78.3442 15.1968 77.9454 14.8477C77.7459 14.6981 77.5465 14.5984 77.3471 14.4986C77.0979 14.4487 76.7988 14.4986 76.4997 14.748L75.3531 15.6456C75.054 15.8949 74.8546 16.2939 74.9543 16.643C75.0041 17.0419 75.3531 17.391 75.9015 17.8398C77.3471 18.8372 79.0919 19.3359 80.8367 19.286C81.6343 19.286 82.4818 19.1863 83.2296 18.937C83.9275 18.7375 84.5257 18.4383 85.0741 17.9894C85.5726 17.5905 86.0213 17.0918 86.2705 16.5432C86.5696 15.9947 86.6693 15.3963 86.6693 14.748C86.6693 14.1994 86.5696 13.6508 86.3204 13.1023C86.1209 12.7532 85.8218 12.3542 85.4729 12.0052ZM96.9387 15.1968C96.839 14.9973 96.5897 14.8477 96.3405 14.7978C96.0912 14.7978 95.8419 14.8976 95.6425 14.9973C95.3434 15.1968 94.9446 15.3464 94.5458 15.3464C94.4461 15.3464 94.2966 15.3464 94.147 15.2965C93.9974 15.2965 93.8977 15.1968 93.798 15.097C93.6983 14.9973 93.5986 14.8477 93.4989 14.6981C93.3992 14.4986 93.3494 14.2493 93.3992 13.9999V9.2125H96.839C97.0384 9.2125 97.2378 9.11277 97.3873 8.96316C97.5369 8.81355 97.6366 8.66395 97.6366 8.46447V6.41984C97.6366 6.22037 97.5369 6.02089 97.3873 5.92115C97.2378 5.77155 97.0882 5.72168 96.8888 5.72168H93.4491V2.48019C93.4491 2.28072 93.3992 2.08124 93.2497 1.9815C93.1001 1.8319 92.9506 1.78203 92.7512 1.78203H90.1091C89.9096 1.78203 89.7102 1.8319 89.6105 1.9815C89.461 2.13111 89.4111 2.33059 89.4111 2.48019V5.77155H87.9156C87.7162 5.77155 87.5168 5.87128 87.4171 6.02089C87.2675 6.1705 87.2177 6.3201 87.2177 6.51958V8.56421C87.2177 8.76368 87.2675 8.91329 87.4171 9.0629C87.5168 9.2125 87.7162 9.31224 87.9156 9.31224H89.4111V14.9973C89.4111 15.6955 89.5108 16.3438 89.8099 16.9422C90.0592 17.4409 90.4082 17.8897 90.807 18.2388C91.2058 18.5879 91.7043 18.8372 92.2527 18.9868C92.801 19.1364 93.3494 19.2362 93.8977 19.2362C94.6455 19.2362 95.3434 19.1364 96.0413 18.8871C96.6894 18.6876 97.2876 18.2887 97.7363 17.8398C98.0354 17.5406 98.0852 17.0419 97.836 16.6928L96.9387 15.1968ZM111.396 5.77155H108.753C108.554 5.77155 108.404 5.87128 108.255 5.97102C108.105 6.12063 108.055 6.3201 108.055 6.51958V6.81879C107.707 6.41984 107.308 6.12063 106.859 5.92115C106.161 5.57207 105.364 5.42246 104.566 5.42246C102.871 5.42246 101.276 6.12063 100.079 7.31748C99.4811 7.96578 98.9826 8.71381 98.6336 9.51172C98.2348 10.4094 98.0852 11.4067 98.0852 12.3542C98.0852 13.3516 98.2348 14.2991 98.6336 15.2466C98.9826 16.0446 99.4811 16.7926 100.079 17.4409C101.276 18.6377 102.871 19.3359 104.566 19.3359C105.364 19.3359 106.161 19.1863 106.859 18.8372C107.308 18.5879 107.756 18.2887 108.055 17.9396V18.2887C108.055 18.4881 108.105 18.6377 108.255 18.7873C108.404 18.937 108.554 18.9868 108.753 18.9868H111.396C111.794 18.9868 112.093 18.6876 112.093 18.2887V6.51958C112.093 6.3201 112.044 6.1705 111.894 6.02089C111.744 5.82141 111.595 5.77155 111.396 5.77155ZM107.806 13.5511C107.657 13.9002 107.457 14.2493 107.208 14.5485C106.909 14.7978 106.61 15.0472 106.261 15.2466C105.912 15.3963 105.463 15.496 105.064 15.496C104.666 15.496 104.267 15.3963 103.918 15.2466C103.569 15.097 103.22 14.8477 102.971 14.5485C102.721 14.2493 102.472 13.9002 102.372 13.5511C102.073 12.7532 102.073 11.9054 102.372 11.1075C102.522 10.7584 102.721 10.4094 102.971 10.1101C103.27 9.81093 103.569 9.61146 103.918 9.41198C104.267 9.26237 104.666 9.16263 105.064 9.16263C105.463 9.16263 105.862 9.26237 106.261 9.41198C106.61 9.56159 106.909 9.81093 107.208 10.0603C107.457 10.3595 107.707 10.6587 107.806 11.0577C108.155 11.9054 108.155 12.8031 107.806 13.5511ZM125.852 14.9973L124.357 13.8503C124.058 13.601 123.808 13.5511 123.559 13.6508C123.36 13.7506 123.16 13.9002 123.011 14.0498C122.662 14.4487 122.313 14.7978 121.864 15.097C121.416 15.3464 120.917 15.496 120.369 15.4461C119.771 15.4461 119.222 15.2965 118.724 14.9474C118.225 14.5984 117.876 14.0997 117.677 13.5511C117.527 13.1522 117.477 12.7532 117.477 12.3542C117.477 11.9553 117.527 11.5065 117.677 11.1075C117.826 10.7584 118.026 10.4094 118.275 10.1101C118.574 9.81093 118.873 9.61146 119.222 9.46185C119.571 9.31224 120.02 9.2125 120.419 9.2125C120.917 9.2125 121.465 9.31224 121.864 9.56159C122.313 9.8608 122.662 10.2099 123.011 10.6088C123.16 10.7584 123.36 10.908 123.559 11.0078C123.808 11.1075 124.058 11.0577 124.357 10.8083L125.852 9.66132C126.052 9.51172 126.201 9.36211 126.251 9.16263C126.351 8.91329 126.301 8.66395 126.201 8.46447C125.603 7.56683 124.806 6.81879 123.858 6.27024C122.861 5.72168 121.665 5.42246 120.319 5.42246C119.372 5.42246 118.425 5.62194 117.577 5.97102C116.73 6.3201 115.982 6.81879 115.334 7.46709C114.686 8.11539 114.187 8.86342 113.838 9.66132C113.14 11.4067 113.14 13.4015 113.838 15.1469C114.187 15.9947 114.686 16.7427 115.334 17.3411C116.68 18.6377 118.425 19.3359 120.319 19.3359C121.665 19.3359 122.861 19.0367 123.858 18.4881C124.806 17.9396 125.603 17.1915 126.201 16.2939C126.351 16.0944 126.351 15.8451 126.251 15.5957C126.151 15.3464 126.002 15.1469 125.852 14.9973ZM139.861 17.7401L135.723 11.6062L139.262 6.91853C139.412 6.71906 139.462 6.41984 139.412 6.1705C139.362 5.97102 139.163 5.77155 138.764 5.77155H135.972C135.823 5.77155 135.673 5.82141 135.524 5.87128C135.324 5.97102 135.224 6.07076 135.125 6.27024L132.283 10.2598H131.585V0.834518C131.585 0.635042 131.535 0.485435 131.386 0.335828C131.236 0.186221 131.087 0.136353 130.887 0.136353H128.245C128.046 0.136353 127.896 0.186221 127.747 0.335828C127.597 0.485435 127.547 0.635042 127.547 0.834518V18.1889C127.547 18.3884 127.647 18.5879 127.747 18.6876C127.896 18.8372 128.046 18.8871 128.245 18.8871H130.887C131.087 18.8871 131.236 18.7873 131.386 18.6876C131.535 18.538 131.585 18.3884 131.585 18.1889V13.601H132.333L135.424 18.3884C135.623 18.7375 135.972 18.937 136.321 18.937H139.262C139.711 18.937 139.91 18.7375 139.96 18.538C140.06 18.2887 140.01 17.9894 139.861 17.7401ZM74.1567 5.77155H71.2154C71.016 5.77155 70.7668 5.82141 70.6172 6.02089C70.4677 6.1705 70.368 6.3201 70.368 6.51958L68.1745 14.5984H67.6261L65.2831 6.46971C65.2333 6.3201 65.1834 6.12063 65.0339 5.97102C64.8843 5.82141 64.6849 5.72168 64.4855 5.72168H61.4446C61.0458 5.72168 60.7965 5.87128 60.6968 6.12063C60.5971 6.36997 60.5971 6.61932 60.6968 6.81879L64.4357 18.2388C64.4855 18.3884 64.5852 18.5879 64.7348 18.6876C64.8843 18.8372 65.0837 18.8871 65.2831 18.8871H66.8784L66.7288 19.2362L66.3799 20.2834C66.2802 20.5826 66.0808 20.8818 65.7817 21.1312C65.5324 21.3307 65.2333 21.4304 64.8843 21.4304C64.6351 21.4304 64.336 21.3805 64.0867 21.2808C63.8375 21.1811 63.5882 21.0314 63.3888 20.8818C63.1894 20.7322 62.9401 20.6824 62.7407 20.6824H62.6909C62.3918 20.6824 62.1425 20.832 62.0428 21.0813L61.0956 22.4776C60.6968 23.0761 60.9461 23.475 61.1953 23.6745C61.6938 24.1233 62.2921 24.4724 62.9401 24.7218C63.638 24.9711 64.3858 25.0708 65.1834 25.0708C66.5294 25.0708 67.676 24.7218 68.5235 23.9737C69.4208 23.1758 70.0689 22.1286 70.4178 20.9816L74.7549 6.86866C74.8546 6.61932 74.8546 6.36997 74.7549 6.12063C74.7549 5.92115 74.5555 5.77155 74.1567 5.77155Z" fill="#3E4B62"/>
</svg>
