<svg width="39" height="46" viewBox="0 0 39 46" fill="none" xmlns="http://www.w3.org/2000/svg">
<path d="M32.1039 24.4206C32.0502 18.6192 36.9909 15.7968 37.2168 15.6654C34.4187 11.7 30.0817 11.1582 28.5576 11.115C24.915 10.7424 21.3817 13.2336 19.5261 13.2336C17.6335 13.2336 14.7761 11.151 11.6965 11.2122C7.73351 11.2716 4.0261 13.5018 1.99277 16.965C-2.20353 24.0264 0.926104 34.4034 4.94647 40.1112C6.95759 42.9066 9.30758 46.0278 12.3835 45.918C15.3928 45.7974 16.5168 44.0532 20.1483 44.0532C23.7465 44.0532 24.802 45.918 27.9391 45.8478C31.1687 45.7974 33.202 43.0398 35.1428 40.2192C37.4668 37.0152 38.4002 33.8598 38.4372 33.6978C38.3613 33.6726 32.165 31.374 32.1039 24.4206Z" fill="white"/>
<path d="M26.178 7.3602C27.7965 5.3928 28.9039 2.7162 28.5965 0C26.2539 0.1008 23.3243 1.575 21.6372 3.4992C20.1446 5.1948 18.8113 7.974 19.1557 10.5876C21.7872 10.7784 24.4891 9.297 26.178 7.3602Z" fill="white"/>
</svg>
