<svg width="16" height="16" viewBox="0 0 16 16" fill="none" xmlns="http://www.w3.org/2000/svg">
<path d="M14.1667 12.3134L13.0667 12.5734C12.82 12.6334 12.6267 12.82 12.5734 13.0667L12.34 14.0467C12.2134 14.58 11.5334 14.7467 11.18 14.3267L9.1867 12.0334C9.0267 11.8467 9.11337 11.5534 9.35337 11.4934C10.5334 11.2067 11.5934 10.5467 12.3734 9.6067C12.5 9.45337 12.7267 9.43337 12.8667 9.57337L14.3467 11.0534C14.8534 11.56 14.6734 12.1934 14.1667 12.3134Z" fill="#0CDD6C"/>
<path d="M1.79999 12.3134L2.89999 12.5734C3.14665 12.6334 3.33999 12.82 3.39332 13.0667L3.62665 14.0467C3.75332 14.58 4.43332 14.7467 4.78665 14.3267L6.77999 12.0334C6.93999 11.8467 6.85332 11.5534 6.61332 11.4934C5.43332 11.2067 4.37332 10.5467 3.59332 9.6067C3.46665 9.45337 3.23999 9.43337 3.09999 9.57337L1.61999 11.0534C1.11332 11.56 1.29332 12.1934 1.79999 12.3134Z" fill="#0CDD6C"/>
<path d="M8.00004 1.33337C5.42004 1.33337 3.33337 3.42004 3.33337 6.00004C3.33337 6.96671 3.62004 7.85337 4.11337 8.59337C4.83337 9.66004 5.97337 10.4134 7.30004 10.6067C7.52671 10.6467 7.76004 10.6667 8.00004 10.6667C8.24004 10.6667 8.47337 10.6467 8.70004 10.6067C10.0267 10.4134 11.1667 9.66004 11.8867 8.59337C12.38 7.85337 12.6667 6.96671 12.6667 6.00004C12.6667 3.42004 10.58 1.33337 8.00004 1.33337ZM10.04 5.85337L9.48671 6.40671C9.39337 6.50004 9.34004 6.68004 9.37337 6.81337L9.53337 7.50004C9.66004 8.04004 9.37337 8.25337 8.89337 7.96671L8.22671 7.57337C8.10671 7.50004 7.90671 7.50004 7.78671 7.57337L7.12004 7.96671C6.64004 8.24671 6.35337 8.04004 6.48004 7.50004L6.64004 6.81337C6.66671 6.68671 6.62004 6.50004 6.52671 6.40671L5.96004 5.85337C5.63337 5.52671 5.74004 5.20004 6.19337 5.12671L6.90671 5.00671C7.02671 4.98671 7.16671 4.88004 7.22004 4.77337L7.61337 3.98671C7.82671 3.56004 8.17337 3.56004 8.38671 3.98671L8.78004 4.77337C8.83337 4.88004 8.97337 4.98671 9.10004 5.00671L9.81337 5.12671C10.26 5.20004 10.3667 5.52671 10.04 5.85337Z" fill="#0CDD6C"/>
</svg>
