<svg width="40" height="40" viewBox="0 0 40 40" fill="none" xmlns="http://www.w3.org/2000/svg">
<path d="M34.9335 29.7332L32.2168 30.6499C31.4668 30.8999 30.8668 31.4833 30.6168 32.2499L29.7001 34.9666C28.9168 37.3166 25.6168 37.2666 24.8835 34.9166L21.8001 24.9999C21.2001 23.0332 23.0168 21.1999 24.9668 21.8166L34.9001 24.8999C37.2335 25.6332 37.2668 28.9499 34.9335 29.7332Z" fill="white" stroke="white" stroke-width="1.5" stroke-linecap="round" stroke-linejoin="round"/>
<path d="M6.63399 10.05C4.56732 12.8334 3.33398 16.2667 3.33398 20.0001C3.33398 29.2001 10.8007 36.6667 20.0007 36.6667" stroke="white" stroke-width="1.5" stroke-linecap="round" stroke-linejoin="round"/>
<path d="M36.6669 19.9999C36.6669 10.7999 29.2003 3.33325 20.0003 3.33325C17.4669 3.33325 15.0836 3.89992 12.9336 4.89992" stroke="white" stroke-width="1.5" stroke-linecap="round" stroke-linejoin="round"/>
</svg>
