<svg width="40" height="40" viewBox="0 0 40 40" fill="none" xmlns="http://www.w3.org/2000/svg">
<path d="M34.85 18.5333V11.2167C34.85 9.84999 33.8167 8.29999 32.5334 7.78332L23.25 3.98333C21.1667 3.13333 18.8167 3.13333 16.7334 3.98333L7.45002 7.78332C6.18336 8.29999 5.15002 9.84999 5.15002 11.2167V18.5333C5.15002 26.6833 11.0667 34.3167 19.15 36.55C19.7 36.7 20.3 36.7 20.85 36.55C28.9334 34.3167 34.85 26.6833 34.85 18.5333ZM21.25 21.45V25.8333C21.25 26.5167 20.6834 27.0833 20 27.0833C19.3167 27.0833 18.75 26.5167 18.75 25.8333V21.45C17.0667 20.9167 15.8334 19.35 15.8334 17.5C15.8334 15.2 17.7 13.3333 20 13.3333C22.3 13.3333 24.1667 15.2 24.1667 17.5C24.1667 19.3667 22.9334 20.9167 21.25 21.45Z" fill="#10A3A4"/>
</svg>
