<svg width="48" height="52" viewBox="0 0 48 52" fill="none" xmlns="http://www.w3.org/2000/svg">
<path fill-rule="evenodd" clip-rule="evenodd" d="M4.77975 15.0893C4.73573 15.1928 4.8387 14.8701 4.86858 14.7613L4.98407 14.3277C6.18616 9.88806 7.38422 5.4455 8.58308 1.00006L47.1886 1.08042L4.52374 36.4981L24.0209 12.521L9.37694 12.561C9.10397 12.5618 8.83505 12.5573 8.56208 12.5812C6.82738 12.7316 5.32083 13.8081 4.77975 15.0893Z" fill="#3E4B62"/>
<path d="M4.77975 15.0893C4.73573 15.1928 4.8387 14.8701 4.86858 14.7613L4.98407 14.3277C6.18616 9.88806 7.38422 5.4455 8.58308 1.00006L47.1886 1.08042L4.52374 36.4981L24.0209 12.521L9.37694 12.561C9.10397 12.5618 8.83505 12.5573 8.56208 12.5812C6.82738 12.7316 5.32083 13.8081 4.77975 15.0893Z" stroke="#3E4B62" stroke-opacity="0.243137" stroke-width="0.0696364" stroke-miterlimit="22.926"/>
<path fill-rule="evenodd" clip-rule="evenodd" d="M45.0943 25.2824C45.1375 25.179 43.9281 32.8307 41.7925 40.7399L1.50195 40.9694L45.0163 5.00244L25.5143 29.2045L40.1611 29.1612C40.4321 29.1612 40.7022 29.1678 40.974 29.1423C42.7099 28.991 44.554 26.5645 45.0943 25.2824Z" fill="#3E4B62"/>
<path d="M45.0943 25.2824C45.1375 25.179 43.9281 32.8307 41.7925 40.7399L1.50195 40.9694L45.0163 5.00244L25.5143 29.2045L40.1611 29.1612C40.4321 29.1612 40.7022 29.1678 40.974 29.1423C42.7099 28.991 44.554 26.5645 45.0943 25.2824Z" stroke="#3E4B62" stroke-opacity="0.243137" stroke-width="0.0696364" stroke-miterlimit="22.926"/>
<path fill-rule="evenodd" clip-rule="evenodd" d="M6.86729 51.9996H0.012085L4.7502 45.4301H1.60667L1.83642 43.616H8.36617L3.63734 50.1723H7.09583L6.86729 51.9996ZM8.16185 51.9996H12.9141L13.1483 50.1204H10.4578L10.6359 48.7072H13.1737L13.3995 46.9076H10.862L11.0437 45.4532H13.7342L13.9648 43.616H9.21292L8.16185 51.9996ZM14.312 51.9996L15.3639 43.616H17.4039L19.7927 47.9275C19.8387 48.0145 19.907 48.1909 20.0055 48.4567C20.1012 48.7237 20.2014 49.0373 20.3112 49.405C20.312 49.0588 20.3205 48.7505 20.3346 48.4769C20.3487 48.2061 20.3693 47.9659 20.3976 47.7565L20.9161 43.6164H22.9459L21.8941 52H19.8634L17.4782 47.6696C17.4285 47.5814 17.3562 47.4054 17.2605 47.1412C17.1656 46.8742 17.0647 46.5614 16.9585 46.2045C16.9549 46.5556 16.9464 46.8668 16.9343 47.1383C16.9193 47.4083 16.8975 47.6485 16.8697 47.8599L16.352 52L14.312 51.9996ZM23.6102 51.9996L24.6612 43.616H26.7977L25.7466 51.9996H23.6102ZM28.5696 51.9996L29.3719 45.5958H27.632L27.8823 43.616H33.4728L33.2233 45.5958H31.4862L30.6818 51.9996H28.5696ZM33.4538 51.9996H35.5677L35.9953 48.5865H38.8134L38.3858 51.9996H40.5053L41.5564 43.616H39.4369L39.0282 46.8738H36.211L36.6188 43.616H34.5037L33.4538 51.9996Z" fill="#3E4B62"/>
</svg>
